<svg xmlns="http://www.w3.org/2000/svg" viewBox="0 0 70 32" width="70" height="32">
  <g fill="#1a1a1a">
    <!-- L -->
    <rect x="4" y="4" width="5" height="24" rx="1"/>
    <rect x="4" y="23" width="14" height="5" rx="1"/>
    <!-- a -->
    <path d="M24 14c0-3 2.5-5 6-5s6 2 6 5v13h-5v-2c-1 1.5-2.5 2.5-4.5 2.5-3 0-5-2-5-4.5s2-4.5 5.5-4.5c1.5 0 2.8.4 4 1v-1c0-1.5-1.5-2.5-3.5-2.5-1.5 0-2.8.5-3.5 1.5l-3-3zm8.5 7c-1.8 0-3 .8-3 2s1.2 2 3 2 3-.8 3-2-1.2-2-3-2z"/>
    <!-- l -->
    <rect x="42" y="4" width="5" height="24" rx="1"/>
    <!-- o -->
    <path d="M52 19c0-5 4-9 9-9s9 4 9 9-4 9-9 9-9-4-9-9zm13 0c0-2.5-1.8-4.5-4-4.5s-4 2-4 4.5 1.8 4.5 4 4.5 4-2 4-4.5z"/>
  </g>
</svg>
